# xmcd
#
# Track frame offsets:
#	150
#	15713
#	28287
#	50850
#	63533
#	81493
#	96355
#	106642
#	123159
#	139011
#	155343
#	176614
#	188299
#	203997
#	216908
#	235410
#	248072
#	259579
#	277547
#	295210
#	310975
#	333704
#
# Disc length: 4736 seconds
#
# Revision: 0
# Processed by: cddbd v1.5.2PL0 Copyright (c) Steve Scherf et al.
# Submitted via: audiograbber 1.83.01
#
DISCID=40127e16
DTITLE=Juliane Werding - Das Beste der 70er CD1
DYEAR=2011
DGENRE=
TTITLE0=am Tag als Conny Kramer starb
TTITLE1=die Zeit in der wir leben
TTITLE2=Bangladesh
TTITLE3=Danke Freunde
TTITLE4=lass uns miteinander reden
TTITLE5=mach dich nicht kaputt
TTITLE6=15 ist ein undankbares Alter
TTITLE7=ein morscher Baum trägt keine guten Früchte
TTITLE8=der letzte Kranich vom Angerburger Moor
TTITLE9=das ist die Freiheit die ich meine
TTITLE10=der Computer macht alles
TTITLE11=Kinder Gottes
TTITLE12=Kinder des Regenbogens
TTITLE13=es gibt keine Äpfel ohne Kerne
TTITLE14=Wildes Wasser
TTITLE15=lass uns Freunde bleiben
TTITLE16=der ewige Soldat
TTITLE17=die Antwort weiß ganz allein der Wind
TTITLE18=sag mir wo die Blumen sind
TTITLE19=das Spiel dass man Liebe nennt
TTITLE20=Mozart
TTITLE21=der Ahornbaum
EXTD=
EXTT0=
EXTT1=
EXTT2=
EXTT3=
EXTT4=
EXTT5=
EXTT6=
EXTT7=
EXTT8=
EXTT9=
EXTT10=
EXTT11=
EXTT12=
EXTT13=
EXTT14=
EXTT15=
EXTT16=
EXTT17=
EXTT18=
EXTT19=
EXTT20=
EXTT21=
PLAYORDER=
